<svg id="Layer_1" data-name="Layer 1" xmlns="http://www.w3.org/2000/svg" viewBox="0 0 248 291"><defs><style>.cls-1,.cls-4,.cls-7{fill:none;stroke-linecap:round;stroke-width:0.57px;}.cls-1,.cls-4{stroke:#000;}.cls-1,.cls-7{stroke-miterlimit:22.93;}.cls-2,.cls-5{fill:#ffbffb;}.cls-2,.cls-3,.cls-6{fill-rule:evenodd;}.cls-4{stroke-linejoin:round;}.cls-6{fill:#fefefe;}.cls-7{stroke:#373435;}</style></defs><title>Chubbs_3 by growwwkit</title><rect x="81.72" y="76.68" width="12.9" height="22.18" rx="2.55" ry="2.55"/><rect class="cls-1" x="81.72" y="76.68" width="12.9" height="22.18" rx="2.55" ry="2.55"/><path class="cls-2" d="M118.68,93.27c-5.44,5.53-9.43,11.89-19,18.52-3.08,2.13-5.08,3.79-5.72,4.08,0,0,.09-13.35.09-13.78C94,101,97.42,99.8,98.69,95a5.42,5.42,0,0,0-1.91-5.86c-2.66-2.34-5.25-1.2-4,1.94a10.84,10.84,0,0,0,1.84,2.49v2.78s-7-.94-10.45-.93c-1.33,0-2.37.34-1.75.08,2.76-1.17,3.74-5.14.93-5.06a3,3,0,0,0,1.83-1.11c.54-1,.64-2.74-1.88-3-.12,0,1.74.16,2.44-.51S87,82.48,82.61,82c-2.17-.25-3.34,1.48-2.53,4.56.12.43-3.43.19-1.62,4.85-3.52,5.42,4.5,9.21,4.6,11.18.47,9-1,19.34.52,23.24,3.53,9.09,14,3.48,28.66-7.65,5.12-3.87,8-15.52,6.53-21.75C118.72,96.16,118.68,93.27,118.68,93.27Z"/><path class="cls-1" d="M118.68,93.27c-5.44,5.53-9.43,11.89-19,18.52-3.08,2.13-5.08,3.79-5.72,4.08,0,0,.09-13.35.09-13.78C94,101,97.42,99.8,98.69,95a5.42,5.42,0,0,0-1.91-5.86c-2.66-2.34-5.25-1.2-4,1.94a10.84,10.84,0,0,0,1.84,2.49v2.78s-7-.94-10.45-.93c-1.33,0-2.37.34-1.75.08,2.76-1.17,3.74-5.14.93-5.06a3,3,0,0,0,1.83-1.11c.54-1,.64-2.74-1.88-3-.12,0,1.74.16,2.44-.51S87,82.48,82.61,82c-2.17-.25-3.34,1.48-2.53,4.56.12.43-3.43.19-1.62,4.85-3.52,5.42,4.5,9.21,4.6,11.18.47,9-1,19.34.52,23.24,3.53,9.09,14,3.48,28.66-7.65,5.12-3.87,8-15.52,6.53-21.75C118.72,96.16,118.68,93.27,118.68,93.27Z"/><path class="cls-3" d="M86,94l6.08-.28a2.55,2.55,0,1,1,0,5.1h-7.8a2.55,2.55,0,0,1-2.55-2.55s.18-.79.7-.81C84.17,95.42,85,94.09,86,94Z"/><path class="cls-1" d="M86,94l6.08-.28a2.55,2.55,0,1,1,0,5.1h-7.8a2.55,2.55,0,0,1-2.55-2.55s.18-.79.7-.81C84.17,95.42,85,94.09,86,94Z"/><path class="cls-3" d="M93.93,115.16c0,.45,0,4.18,0,5.29a11.53,11.53,0,0,1,1.19-4.68s.7-1.24.53-1.1a9.41,9.41,0,0,1-1.55.85C94.07,115.46,94,115.17,93.93,115.16Z"/><path class="cls-4" d="M93.93,115.16c0,.45,0,4.18,0,5.29a11.53,11.53,0,0,1,1.19-4.68s.7-1.24.53-1.1a9.41,9.41,0,0,1-1.55.85C94.07,115.46,94,115.17,93.93,115.16Z"/><path class="cls-3" d="M118.69,93.89l-3.37,3.16c-2,9.28-5,14.72-6.56,23.81,2-1.66,3.44-3,5.45-4.7Z"/><path class="cls-1" d="M118.69,93.89l-3.37,3.16c-2,9.28-5,14.72-6.56,23.81,2-1.66,3.44-3,5.45-4.7Z"/><path class="cls-2" d="M113.12,224.37h21a.66.66,0,0,1,.64.64l1,14.16H102.13c-.63-5.93,3.72-7.73,8.84-10.27C113,227.43,113.12,224.37,113.12,224.37Z"/><path class="cls-4" d="M113.12,224.37h21a.66.66,0,0,1,.64.64l1,14.16H102.13c-.63-5.93,3.72-7.73,8.84-10.27C113,227.43,113.12,224.37,113.12,224.37Z"/><rect class="cls-5" x="101.5" y="236.9" width="35.26" height="4.31" rx="0.64" ry="0.64"/><rect class="cls-4" x="101.5" y="236.9" width="35.26" height="4.31" rx="0.64" ry="0.64"/><path class="cls-2" d="M133.8,224.37h21a.67.67,0,0,1,.64.64l1,14.16H122.81c-.63-5.93,3.72-7.73,8.84-10.27C133.64,227.43,133.8,224.37,133.8,224.37Z"/><path class="cls-4" d="M133.8,224.37h21a.67.67,0,0,1,.64.64l1,14.16H122.81c-.63-5.93,3.72-7.73,8.84-10.27C133.64,227.43,133.8,224.37,133.8,224.37Z"/><rect class="cls-5" x="122.18" y="236.9" width="35.26" height="4.31" rx="0.64" ry="0.64"/><rect class="cls-4" x="122.18" y="236.9" width="35.26" height="4.31" rx="0.64" ry="0.64"/><path class="cls-2" d="M119,63.75c0,8.55,0,8.41,0,17,0,22.6-10.28,27.37-10.93,50.63-.12,4.25,3.69,3.72,4.33,9.43,4.81,1.17,17.65-3.53,22.45-2.36,4.79-1.17,17.43,8.33,22.22,7.16,8.41-36.93-9.34-44.12-9.31-63.36l0-18.46C147.82,44.8,119.06,45.45,119,63.75Z"/><path class="cls-4" d="M119,63.75c0,8.55,0,8.41,0,17,0,22.6-10.28,27.37-10.93,50.63-.12,4.25,3.69,3.72,4.33,9.43,4.81,1.17,17.65-3.53,22.45-2.36,4.79-1.17,17.43,8.33,22.22,7.16,8.41-36.93-9.34-44.12-9.31-63.36l0-18.46C147.82,44.8,119.06,45.45,119,63.75Z"/><path class="cls-2" d="M119,63.75c0,8.55,0,8.41,0,17a63.85,63.85,0,0,1-.42,7.52h29.77a29.62,29.62,0,0,1-.59-6l0-18.46C147.82,44.8,119.06,45.45,119,63.75Z"/><path class="cls-4" d="M119,63.75c0,8.55,0,8.41,0,17a63.85,63.85,0,0,1-.42,7.52h29.77a29.62,29.62,0,0,1-.59-6l0-18.46C147.82,44.8,119.06,45.45,119,63.75Z"/><path class="cls-2" d="M147.73,62.23c-1.43-16.87-27.1-16.32-28.62,0Z"/><path class="cls-4" d="M147.73,62.23c-1.43-16.87-27.1-16.32-28.62,0Z"/><path class="cls-2" d="M159.05,130.72c0,.21,0,.41,0,.62.18,9.67-2.94,15-2.91,23.83,0,19.15.58,68.38.52,69.38H112s-.4-50.11-.12-68.89c.14-10-2.76-12.86-3.84-24.21a5.93,5.93,0,0,1,0-.73Z"/><path class="cls-4" d="M159.05,130.72c0,.21,0,.41,0,.62.18,9.67-2.94,15-2.91,23.83,0,19.15.58,68.38.52,69.38H112s-.4-50.11-.12-68.89c.14-10-2.76-12.86-3.84-24.21a5.93,5.93,0,0,1,0-.73Z"/><path class="cls-6" d="M120.31,73.71A1.67,1.67,0,1,0,118.64,72,1.67,1.67,0,0,0,120.31,73.71Z"/><path class="cls-4" d="M120.31,73.71A1.67,1.67,0,1,0,118.64,72,1.67,1.67,0,0,0,120.31,73.71Z"/><path class="cls-6" d="M134.33,70.37A1.67,1.67,0,1,0,136,72,1.67,1.67,0,0,0,134.33,70.37Z"/><path class="cls-4" d="M134.33,70.37A1.67,1.67,0,1,0,136,72,1.67,1.67,0,0,0,134.33,70.37Z"/><path class="cls-4" d="M133.61,155.87c0-4.09-6.72-3.71-9.17-9.52"/><path class="cls-1" d="M120.94,65.56a3.28,3.28,0,0,0-1.93.3"/><path class="cls-1" d="M133.63,65.56a3.31,3.31,0,0,1,1.93.3"/><path class="cls-2" d="M147.52,85.64H119a2,2,0,0,0,0,4h28.5a2,2,0,1,0,0-4Z"/><path class="cls-1" d="M147.52,85.64H119a2,2,0,0,0,0,4h28.5a2,2,0,1,0,0-4Z"/><line class="cls-1" x1="147.79" y1="62.09" x2="103.95" y2="62.09"/><path class="cls-3" d="M156.18,154.4l-8.52-38.58c-.11.75.9,7.89,1.84,14.9,0,.26,1-.3,1.06,0,1.82,13.56,5.08,30.32,3.06,43.68-.59,3.91,2.22,4.93,2.08,4.64a7.65,7.65,0,0,1-.47-4.77c.36-2,1.68-3,1-4Z"/><path class="cls-1" d="M156.18,154.4l-8.52-38.58c-.11.75.9,7.89,1.84,14.9,0,.26,1-.3,1.06,0,1.82,13.56,5.08,30.32,3.06,43.68-.59,3.91,2.22,4.93,2.08,4.64a7.65,7.65,0,0,1-.47-4.77c.36-2,1.68-3,1-4Z"/><path class="cls-3" d="M118.63,89.59l-.44,1.77A143.71,143.71,0,0,1,135,89.65Z"/><path class="cls-1" d="M118.63,89.59l-.44,1.77A143.71,143.71,0,0,1,135,89.65Z"/><path class="cls-3" d="M112.94,224.51l-.43,1.77a142.27,142.27,0,0,1,16.78-1.7Z"/><path class="cls-1" d="M112.94,224.51l-.43,1.77a142.27,142.27,0,0,1,16.78-1.7Z"/><path class="cls-3" d="M133.9,224.51l-.43,1.77a142.27,142.27,0,0,1,16.78-1.7Z"/><path class="cls-1" d="M133.9,224.51l-.43,1.77a142.27,142.27,0,0,1,16.78-1.7Z"/><path class="cls-3" d="M119.48,62,119,63.79a143.71,143.71,0,0,1,16.79-1.71Z"/><path class="cls-1" d="M119.48,62,119,63.79a143.71,143.71,0,0,1,16.79-1.71Z"/><path class="cls-3" d="M119.56,72.2a.2.2,0,0,0-.19.19.19.19,0,0,0,.19.19.18.18,0,0,0,.19-.19A.19.19,0,0,0,119.56,72.2Z"/><path class="cls-4" d="M119.56,72.2a.2.2,0,0,0-.19.19.19.19,0,0,0,.19.19.18.18,0,0,0,.19-.19A.19.19,0,0,0,119.56,72.2Z"/><path class="cls-3" d="M133.4,72.6a.19.19,0,0,0,.19-.19.19.19,0,0,0-.38,0A.19.19,0,0,0,133.4,72.6Z"/><path class="cls-4" d="M133.4,72.6a.19.19,0,0,0,.19-.19.19.19,0,0,0-.38,0A.19.19,0,0,0,133.4,72.6Z"/><line class="cls-1" x1="133.58" y1="224.55" x2="133.58" y2="155.74"/><path class="cls-2" d="M163.19,179.46c.69-.19-1.53,5.45-1.16,6.49.7,2,3.68.1,4.25-.81.28-.45,4,2.59,4.24-5.52.09-2.56-1.7-12.14-1.89-15.62-.87-15.95-6.61-55.81-19.93-72.56-1-1.25-1.84-.41-2.67-.22-1.3.3-2.49,1.12-3.77,5.65-1.35,4.78.83,16.31,4.94,18.95,3.11,14.47,7.9,32.07,8.57,46.94.14,3.18.51,5.41,0,7.25-.43,1.55-1.65,2.65-2.45,5.55-.54,2,2.3,6.76,3.8,6.09,1-.44,1.21-1.16,2.27-4.52.26-.84,1.54-4.12,2.12-4.39,1.34-.74,1.9,4.72,1.67,6.72"/><path class="cls-4" d="M163.23,178.31a14.76,14.76,0,0,1-1.23,6.2c-.54,1.37.33,2,1.33,2.07,1.4.15,2.49-.86,3.54-3.65a19.14,19.14,0,0,0,.91-7.43c-.12-1.44,1.71-1.8,1.54-4-1.24-10.65-2.7-52.77-20.24-80.33"/><path class="cls-4" d="M163.19,179.46c.23-2-.33-7.46-1.67-6.72-.58.27-1.86,3.55-2.12,4.39-.42,1.34-.54,2.92-.86,3.64-1.07,2.45-4.29-.72-4.83-2.91-1-4.21,1.88-7.31,2.07-7.85.63-1.82.09-5,0-7.25-.67-14.87-5.46-32.47-8.57-46.94"/><path class="cls-2" d="M163.05,173.83c.87,3,0,11.46-2.76,13.1-1.34.81-3.13.18-3.34-.7-.49-2.13.66-2.69,1.22-5.77a25.28,25.28,0,0,0,.1-8.12c-.39-2.08,2.27-3.52,4.22.2A5.73,5.73,0,0,1,163.05,173.83Z"/><path class="cls-1" d="M163.05,173.83c.87,3,0,11.46-2.76,13.1-1.34.81-3.13.18-3.34-.7-.49-2.13.66-2.69,1.22-5.77a25.28,25.28,0,0,0,.1-8.12c-.39-2.08,2.27-3.52,4.22.2A5.73,5.73,0,0,1,163.05,173.83Z"/><path class="cls-1" d="M168.91,168c-.1.54,1.86,7.37,1.47,12.17-.21,2.67-1.84,6.13-4.1,4.93"/><path class="cls-2" d="M161.19,166.72a4.11,4.11,0,0,0-3.89,4.2,3.93,3.93,0,0,0,3.73,4.2,4.11,4.11,0,0,0,3.89-4.2,3.93,3.93,0,0,0-3.73-4.2"/><path class="cls-2" d="M167.86,167.44c-.82,0-3.83,7.4-.88,7.68s1.15,5,2,5,1-2.64,1-3.86-1.31-8.85-2.12-8.85"/><path class="cls-1" d="M158.4,174.41c0-.87-.75-1.15-.89.18a5.17,5.17,0,0,0,.82,3.26"/><path class="cls-7" d="M126.34,75.39c-.81.2-1.58,1.27-.38,1.71,1.88.71-1.57,1.45,0,2.64.28.21.68.06,1,0"/><path class="cls-1" d="M81.72,86.36a8.32,8.32,0,0,1,2.61.18"/><path class="cls-1" d="M80.28,91.11c.24-.13,4.33-.91,4.82-1"/><path class="cls-7" d="M120.43,67.47A4.47,4.47,0,1,1,116,71.94,4.47,4.47,0,0,1,120.43,67.47Z"/><path class="cls-7" d="M134.13,67.47a4.47,4.47,0,1,1-4.47,4.47A4.47,4.47,0,0,1,134.13,67.47Z"/><line class="cls-7" x1="138.83" y1="71.34" x2="147.78" y2="71.34"/><path class="cls-7" d="M124.43,70c1-1.82,4.52-2,5.94-.17"/><line class="cls-7" x1="93.93" y1="73.85" x2="94.52" y2="69.92"/><line class="cls-7" x1="96.89" y1="75.99" x2="101.49" y2="72.75"/><line class="cls-7" x1="102.21" y1="79.42" x2="98.89" y2="79.96"/></svg>