<svg id="Layer_1" data-name="Layer 1" xmlns="http://www.w3.org/2000/svg" viewBox="0 0 248 291"><defs><style>.cls-1,.cls-5{fill:#ffbffb;}.cls-1,.cls-3,.cls-6{fill-rule:evenodd;}.cls-2,.cls-4{fill:none;stroke:#000;stroke-linecap:round;stroke-width:0.57px;}.cls-2{stroke-miterlimit:22.93;}.cls-4{stroke-linejoin:round;}.cls-6{fill:#fefefe;}</style></defs><title>Chubbs_10 by growwwkit</title><path class="cls-1" d="M111.53,85.27c.11-.19,3.34-1.88,3.78,1.64.2,1.61-1.53,4.15-1.89,3.77C113.42,90.68,111.24,85.73,111.53,85.27Z"/><path class="cls-2" d="M111.53,85.27c.11-.19,3.34-1.88,3.78,1.64.2,1.61-1.53,4.15-1.89,3.77C113.42,90.68,111.24,85.73,111.53,85.27Z"/><path class="cls-1" d="M144.88,94.6c-4.78,4.86-18.3,17.89-19.33,18.92,0,0-5.34-9.67-5.34-10.1,0-1.07-.59-.36.68-5.16A5.42,5.42,0,0,0,119,92.4c-2.66-2.34-5.25-1.2-4,1.94a10.84,10.84,0,0,0,1.84,2.49v2.78c-19.33-6.13-11.69-1.57-10.3,3.14,2,6.68,7.09,17.17,8.61,21.07,2.34,6,7.72,5.59,15.37,1.36,3.88-2.15,3-2,7.95-5.71,5.11-3.87,8-15.52,6.52-21.75C144.92,97.49,144.88,94.6,144.88,94.6Z"/><path class="cls-2" d="M144.88,94.6c-4.78,4.86-18.3,17.89-19.33,18.92,0,0-5.34-9.67-5.34-10.1,0-1.07-.59-.36.68-5.16A5.42,5.42,0,0,0,119,92.4c-2.66-2.34-5.25-1.2-4,1.94a10.84,10.84,0,0,0,1.84,2.49v2.78c-19.33-6.13-11.69-1.57-10.3,3.14,2,6.68,7.09,17.17,8.61,21.07,2.34,6,7.72,5.59,15.37,1.36,3.88-2.15,3-2,7.95-5.71,5.11-3.87,8-15.52,6.52-21.75C144.92,97.49,144.88,94.6,144.88,94.6Z"/><rect x="102.67" y="83.76" width="12.9" height="22.18" rx="2.55" ry="2.55" transform="translate(-28.36 50.1) rotate(-22.97)"/><rect class="cls-2" x="102.67" y="83.76" width="12.9" height="22.18" rx="2.55" ry="2.55" transform="translate(-28.36 50.1) rotate(-22.97)"/><path class="cls-3" d="M125.58,113.51l2.07,4.87a11.3,11.3,0,0,1-.73-4.77s.28-1.25.07-1.22Z"/><path class="cls-4" d="M125.58,113.51l2.07,4.87a11.3,11.3,0,0,1-.73-4.77s.28-1.25.07-1.22Z"/><path class="cls-3" d="M144.89,95.22l-3.37,3.16c-2,9.27-5,14.71-6.56,23.8,2-1.66,3.45-3,5.45-4.7Z"/><path class="cls-2" d="M144.89,95.22l-3.37,3.16c-2,9.27-5,14.71-6.56,23.8,2-1.66,3.45-3,5.45-4.7Z"/><path class="cls-1" d="M139.32,225.69h21a.67.67,0,0,1,.64.64l1,14.16H128.34c-.63-5.93,3.71-7.72,8.83-10.27C139.17,228.75,139.32,225.69,139.32,225.69Z"/><path class="cls-4" d="M139.32,225.69h21a.67.67,0,0,1,.64.64l1,14.16H128.34c-.63-5.93,3.71-7.72,8.83-10.27C139.17,228.75,139.32,225.69,139.32,225.69Z"/><rect class="cls-5" x="127.7" y="238.23" width="35.26" height="4.31" rx="0.64" ry="0.64"/><rect class="cls-4" x="127.7" y="238.23" width="35.26" height="4.31" rx="0.64" ry="0.64"/><path class="cls-1" d="M160,225.69h21a.67.67,0,0,1,.64.64l1,14.16H149c-.63-5.93,3.71-7.72,8.83-10.27C159.85,228.75,160,225.69,160,225.69Z"/><path class="cls-4" d="M160,225.69h21a.67.67,0,0,1,.64.64l1,14.16H149c-.63-5.93,3.71-7.72,8.83-10.27C159.85,228.75,160,225.69,160,225.69Z"/><rect class="cls-5" x="148.38" y="238.23" width="35.27" height="4.31" rx="0.64" ry="0.64"/><rect class="cls-4" x="148.38" y="238.23" width="35.27" height="4.31" rx="0.64" ry="0.64"/><path class="cls-1" d="M145.24,65.07c0,8.56,0,8.41,0,17,0,22.6-10.28,27.37-10.92,50.62-.12,4.25,3.68,3.72,4.33,9.43,4.8,1.17,17.64-3.52,22.45-2.35,4.78-1.17,17.42,8.33,22.21,7.16,8.41-36.94-9.34-44.13-9.31-63.36l0-18.47C174,46.13,145.26,46.78,145.24,65.07Z"/><path class="cls-4" d="M145.24,65.07c0,8.56,0,8.41,0,17,0,22.6-10.28,27.37-10.92,50.62-.12,4.25,3.68,3.72,4.33,9.43,4.8,1.17,17.64-3.52,22.45-2.35,4.78-1.17,17.42,8.33,22.21,7.16,8.41-36.94-9.34-44.13-9.31-63.36l0-18.47C174,46.13,145.26,46.78,145.24,65.07Z"/><path class="cls-1" d="M145.24,65.07c0,8.56,0,8.41,0,17a64,64,0,0,1-.42,7.52h29.77a31.27,31.27,0,0,1-.59-6l0-18.47C174,46.13,145.26,46.78,145.24,65.07Z"/><path class="cls-4" d="M145.24,65.07c0,8.56,0,8.41,0,17a64,64,0,0,1-.42,7.52h29.77a31.27,31.27,0,0,1-.59-6l0-18.47C174,46.13,145.26,46.78,145.24,65.07Z"/><path class="cls-1" d="M173.93,63.56c-1.42-16.87-27.1-16.33-28.62,0Z"/><path class="cls-4" d="M173.93,63.56c-1.42-16.87-27.1-16.33-28.62,0Z"/><path class="cls-1" d="M185.25,132c0,.21,0,.42,0,.62.19,9.67-2.93,15-2.91,23.83.06,19.16.58,68.39.52,69.38H138.15s-.39-50.1-.12-68.88c.15-10-2.75-12.87-3.83-24.22a5.88,5.88,0,0,1,0-.73Z"/><path class="cls-4" d="M185.25,132c0,.21,0,.42,0,.62.19,9.67-2.93,15-2.91,23.83.06,19.16.58,68.39.52,69.38H138.15s-.39-50.1-.12-68.88c.15-10-2.75-12.87-3.83-24.22a5.88,5.88,0,0,1,0-.73Z"/><path class="cls-6" d="M146.51,75a1.68,1.68,0,1,0-1.67-1.67A1.67,1.67,0,0,0,146.51,75Z"/><path class="cls-4" d="M146.51,75a1.68,1.68,0,1,0-1.67-1.67A1.67,1.67,0,0,0,146.51,75Z"/><path class="cls-6" d="M160.54,71.69a1.68,1.68,0,1,0,1.67,1.68A1.67,1.67,0,0,0,160.54,71.69Z"/><path class="cls-4" d="M160.54,71.69a1.68,1.68,0,1,0,1.67,1.68A1.67,1.67,0,0,0,160.54,71.69Z"/><path class="cls-4" d="M159.81,157.19c0-4.09-6.71-3.7-9.17-9.52"/><path class="cls-2" d="M147.14,66.88a3.39,3.39,0,0,0-1.93.3"/><path class="cls-2" d="M159.83,66.88a3.36,3.36,0,0,1,1.93.3"/><path class="cls-1" d="M173.73,87h-28.5a2,2,0,1,0,0,4.05h28.5a2,2,0,0,0,0-4.05Z"/><path class="cls-2" d="M173.73,87h-28.5a2,2,0,1,0,0,4.05h28.5a2,2,0,0,0,0-4.05Z"/><line class="cls-2" x1="174" y1="63.41" x2="130.15" y2="63.41"/><path class="cls-3" d="M144.83,90.92l-.43,1.76A147.83,147.83,0,0,1,161.18,91Z"/><path class="cls-2" d="M144.83,90.92l-.43,1.76A147.83,147.83,0,0,1,161.18,91Z"/><path class="cls-3" d="M139.15,225.84l-.44,1.76a148.24,148.24,0,0,1,16.79-1.7Z"/><path class="cls-2" d="M139.15,225.84l-.44,1.76a148.24,148.24,0,0,1,16.79-1.7Z"/><path class="cls-3" d="M160.11,225.84l-.44,1.76a147.87,147.87,0,0,1,16.79-1.7Z"/><path class="cls-2" d="M160.11,225.84l-.44,1.76a147.87,147.87,0,0,1,16.79-1.7Z"/><path class="cls-3" d="M145.68,63.34l-.43,1.77A147.83,147.83,0,0,1,162,63.41Z"/><path class="cls-2" d="M145.68,63.34l-.43,1.77A147.83,147.83,0,0,1,162,63.41Z"/><path class="cls-3" d="M145.77,73.53a.18.18,0,0,0-.19.19.19.19,0,0,0,.19.19.2.2,0,0,0,.19-.19A.19.19,0,0,0,145.77,73.53Z"/><path class="cls-4" d="M145.77,73.53a.18.18,0,0,0-.19.19.19.19,0,0,0,.19.19.2.2,0,0,0,.19-.19A.19.19,0,0,0,145.77,73.53Z"/><path class="cls-3" d="M159.6,73.92a.18.18,0,0,0,.19-.19.19.19,0,0,0-.19-.19.2.2,0,0,0-.19.19A.19.19,0,0,0,159.6,73.92Z"/><path class="cls-4" d="M159.6,73.92a.18.18,0,0,0,.19-.19.19.19,0,0,0-.19-.19.2.2,0,0,0-.19.19A.19.19,0,0,0,159.6,73.92Z"/><line class="cls-2" x1="159.78" y1="225.87" x2="159.78" y2="157.07"/><line class="cls-2" x1="150.93" y1="69.57" x2="173.99" y2="69.57"/><path class="cls-3" d="M154.38,69.57H165.1v1.48a5.36,5.36,0,1,1-10.72,0Z"/><path class="cls-2" d="M154.38,69.57H165.1v1.48a5.36,5.36,0,1,1-10.72,0Z"/><path class="cls-3" d="M141.69,69.57h10.72v1.48a5.36,5.36,0,1,1-10.72,0Z"/><path class="cls-2" d="M141.69,69.57h10.72v1.48a5.36,5.36,0,1,1-10.72,0Z"/><path class="cls-2" d="M162.27,80.5a2.79,2.79,0,0,0,1.38-1.65"/><path class="cls-2" d="M162.67,78.19a2.69,2.69,0,0,0,2.17.58"/><path class="cls-1" d="M120.74,104.7c4.29,2.2,8.79,3.62,13.53,5.76A49,49,0,0,0,144.94,114c3.67.64,6,.91,8.89-.12,4.16-1.48,19.84-8.41,20.89-10.28,2.82-5-.38-10.32-6.22-10.39l-19.25,9-22.64-8.49c-2.85-5.5-7-2.54-7.2-2.8l-5.19-2.06c-1.5-.6-4.91-1.57-5.35.88-.35,1.92,5.19,3.55,5.19,3.55-3.7.82-1,4-1,4-1.89,1.72-1,3.32,1.7,4.83,1.74,1,5.07,2.11,6,2.6"/><path class="cls-2" d="M168.5,93.21l-19.25,9-22.64-8.49c-2.85-5.5-7-2.54-7.2-2.8l-5.19-2.06c-1.5-.6-4.91-1.57-5.35.88-.35,1.92,5.19,3.55,5.19,3.55-3.7.82-1,4-1,4-1.89,1.72-1,3.32,1.7,4.83,1.74,1,5.07,2.11,6,2.6,4.29,2.2,8.79,3.62,13.53,5.76A49,49,0,0,0,144.94,114c3.67.64,6.49.74,9.36-.29,4.15-1.48,19.37-8.24,20.42-10.11"/><line class="cls-4" x1="113.45" y1="93.09" x2="116.72" y2="94.19"/><line class="cls-4" x1="119.27" y1="90.83" x2="121.61" y2="91.69"/><line class="cls-4" x1="113.02" y1="97.27" x2="116.21" y2="98.27"/><path class="cls-1" d="M101,92.24c.08.21,6.61.54,4.68,3.42a4.44,4.44,0,0,1,.61.15,1.63,1.63,0,0,1-.1,3.1s2.09-.25,2,1.42c-.06,1.94-4.07,1.75-5.37,1.37a1.92,1.92,0,0,1-1.57-1.79c-.08-.84.51,0-1.06-1.27s-.22-2.93-.67-3.35c-1.11-1-2-3.37.68-4.05C100.26,91.23,101,92.24,101,92.24Z"/><path class="cls-2" d="M101,92.24c.08.21,6.61.54,4.68,3.42a4.44,4.44,0,0,1,.61.15,1.63,1.63,0,0,1-.1,3.1s2.09-.25,2,1.42c-.06,1.94-4.07,1.75-5.37,1.37a1.92,1.92,0,0,1-1.57-1.79c-.08-.84.51,0-1.06-1.27s-.22-2.93-.67-3.35c-1.11-1-2-3.37.68-4.05C100.26,91.23,101,92.24,101,92.24Z"/><path class="cls-2" d="M99.52,95.26a4.71,4.71,0,0,0,1.09.4,11.65,11.65,0,0,0,4.88.12l.12,0"/><path class="cls-2" d="M101,99.2c1.74,0,4,.26,5.58-.44a.41.41,0,0,0,.11-.06"/><path class="cls-3" d="M138,112.39l-.53,1.54c3.78,1,8.34,1.9,12.26,1.5a23.8,23.8,0,0,0,8.85-3.09,41.26,41.26,0,0,1,3.76-2c-.17,0-7.8,4.28-13.52,4.28a18.92,18.92,0,0,1-5.2-.78Z"/><path class="cls-2" d="M138,112.39l-.53,1.54c3.78,1,8.34,1.9,12.26,1.5a23.8,23.8,0,0,0,8.85-3.09,41.26,41.26,0,0,1,3.76-2c-.17,0-7.8,4.28-13.52,4.28a18.92,18.92,0,0,1-5.2-.78Z"/><polygon class="cls-3" points="67.56 49.29 94.94 60.65 96.98 53.89 67.56 49.29"/><polygon class="cls-4" points="67.56 49.29 94.94 60.65 96.98 53.89 67.56 49.29"/><polygon class="cls-1" points="73.58 51.42 94.4 55.67 95.09 60.72 73.58 51.42"/><polygon class="cls-4" points="73.58 51.42 94.4 55.67 95.09 60.72 73.58 51.42"/><polygon class="cls-1" points="85.55 60.84 94.4 55.67 62.46 48.46 85.55 60.84"/><polygon class="cls-4" points="85.55 60.84 94.4 55.67 62.46 48.46 85.55 60.84"/><polygon class="cls-1" points="96.74 54.03 105.6 48.85 62.46 48.46 96.74 54.03"/><polygon class="cls-4" points="96.74 54.03 105.6 48.85 62.46 48.46 96.74 54.03"/><path class="cls-2" d="M99.75,55.52a15.45,15.45,0,0,1,6.75,5.41c2.5,3.57,3.36,12.26-1.52,14.19-3.49,1.39-7.79-3.73-5.92-5.32,2.36-2,5.84,4.16,5.57,11.13"/></svg>