<svg xmlns="http://www.w3.org/2000/svg" version="1.1" xmlns:xlink="http://www.w3.org/1999/xlink" xmlns:svgjs="http://svgjs.com/svgjs" width="500" height="500"><svg xmlns="http://www.w3.org/2000/svg" xmlns:xlink="http://www.w3.org/1999/xlink" width="500" zoomAndPan="magnify" viewBox="0 0 375 374.999991" height="500" preserveAspectRatio="xMidYMid meet" version="1.0"><defs><g></g><clipPath id="SvgjsClipPath1000"><path d="M 62 30.386719 L 312 30.386719 L 312 343 L 62 343 Z M 62 30.386719 " clip-rule="nonzero"></path></clipPath></defs><g clip-path="url(#41283e1ec7)"><path fill="#171710" d="M 144.117188 335.066406 C 119.320312 331.699219 92.328125 325.824219 77.445312 306.96875 C 69.648438 297.070312 66.207031 284.707031 64.464844 272.503906 C 61.644531 252.828125 62.765625 232.867188 63.84375 213.023438 C 66.621094 162.746094 69.398438 112.425781 75.453125 62.351562 C 76.738281 51.753906 79.433594 39.472656 89.714844 34.871094 C 93.78125 33.0625 98.464844 32.816406 102.984375 32.652344 C 136.738281 31.296875 170.488281 30.640625 204.28125 30.722656 C 224.847656 30.804688 246.035156 31.214844 264.984375 38.648438 C 307.9375 55.492188 306.53125 95.089844 307.523438 131.894531 C 308.769531 177.65625 310.054688 223.457031 311.296875 269.21875 C 311.878906 289.101562 312.003906 310.378906 300.269531 326.972656 C 296.164062 332.847656 290.441406 337.984375 283.394531 340.449219 C 277.628906 342.503906 271.285156 342.625 265.109375 342.707031 C 224.679688 343.078125 184.171875 340.53125 144.117188 335.066406 Z M 144.117188 335.066406 " fill-opacity="1" fill-rule="nonzero"></path></g><g fill="#f3f5f9" fill-opacity="1"><g transform="translate(93.634468, 230.498713)"><g><path d="M 40.621094 0 C 66.828125 -0.492188 53.5625 -65.191406 51.59375 -78.292969 C 58.148438 -78.292969 70.59375 -76.984375 75.019531 -82.714844 C 79.605469 -88.449219 75.507812 -96.3125 69.613281 -99.09375 C 60.929688 -103.191406 49.628906 -101.714844 40.292969 -102.207031 C 31.941406 -102.699219 17.035156 -106.792969 9.5 -103.355469 C 2.949219 -100.40625 0.65625 -92.542969 3.765625 -86.320312 C 8.355469 -76.65625 20.964844 -77.964844 29.8125 -78.457031 C 30.464844 -59.949219 28.5 -41.929688 27.84375 -23.585938 C 27.355469 -14.25 27.84375 0.164062 40.621094 0 Z M 40.621094 0 "></path></g></g></g><g fill="#f3f5f9" fill-opacity="1"><g transform="translate(204.359045, 230.498713)"><g><path d="M 40.621094 0 C 66.828125 -0.492188 53.5625 -65.191406 51.59375 -78.292969 C 58.148438 -78.292969 70.59375 -76.984375 75.019531 -82.714844 C 79.605469 -88.449219 75.507812 -96.3125 69.613281 -99.09375 C 60.929688 -103.191406 49.628906 -101.714844 40.292969 -102.207031 C 31.941406 -102.699219 17.035156 -106.792969 9.5 -103.355469 C 2.949219 -100.40625 0.65625 -92.542969 3.765625 -86.320312 C 8.355469 -76.65625 20.964844 -77.964844 29.8125 -78.457031 C 30.464844 -59.949219 28.5 -41.929688 27.84375 -23.585938 C 27.355469 -14.25 27.84375 0.164062 40.621094 0 Z M 40.621094 0 "></path></g></g></g></svg><style>@media (prefers-color-scheme: light) { :root { filter: none; } }
</style></svg>