<svg xmlns="http://www.w3.org/2000/svg" xmlns:xlink="http://www.w3.org/1999/xlink" version="1.1" x="0px" y="0px" viewBox="0 0 100 100" style="enable-background:new 0 0 100 100;" xml:space="preserve"><path d="M89,45c-3.7275391,0-5.6142578,2.3212891-7.2788086,4.3691406C80.137207,51.3173828,78.7695312,53,75.9941406,53  s-4.1435547-1.6826172-5.7270508-3.6308594C68.6025391,47.3212891,66.7158203,45,62.9882812,45  c-3.7250977,0-5.6108398,2.3212891-7.2749023,4.3696289C54.1308594,51.3173828,52.7646484,53,49.9912109,53  c-2.7744141,0-4.1416016-1.6826172-5.7246094-3.6303711C42.6025391,47.3212891,40.7163086,45,36.9897461,45  c-3.7250977,0-5.6108398,2.3212891-7.2744141,4.3696289C28.1333008,51.3173828,26.7666016,53,23.9931641,53  c-2.7719727,0-4.1381836-1.6826172-5.7202148-3.6303711C16.609375,47.3212891,14.7246094,45,11,45c-0.5522461,0-1,0.4477539-1,1  s0.4477539,1,1,1c2.7719727,0,4.1381836,1.6826172,5.7202148,3.6303711C18.3837891,52.6787109,20.2685547,55,23.9931641,55  c3.7255859,0,5.6108398-2.3212891,7.2749023-4.3696289C32.8500977,48.6821289,34.2167969,47,36.9897461,47  c2.7744141,0,4.1416016,1.6826172,5.7250977,3.6308594C44.3789062,52.6787109,46.2651367,55,49.9912109,55  c3.7250977,0,5.6108398-2.3212891,7.2749023-4.3696289C58.8481445,48.6826172,60.2148438,47,62.9882812,47  c2.7753906,0,4.1430664,1.6826172,5.7270508,3.6308594C70.3798828,52.6787109,72.2666016,55,75.9941406,55  s5.6142578-2.3212891,7.2788086-4.3691406C84.8564453,48.6826172,86.2246094,47,89,47c0.5522461,0,1-0.4477539,1-1  S89.5522461,45,89,45z" fill="#ff8184"/></svg>