<svg xmlns="http://www.w3.org/2000/svg" xmlns:xlink="http://www.w3.org/1999/xlink" width="326" zoomAndPan="magnify" viewBox="0 0 244.5 38.999999" height="52" preserveAspectRatio="xMidYMid meet" version="1.0"><defs><g/><clipPath id="e048f9719e"><path d="M 4.429688 0.558594 L 34.671875 0.558594 L 34.671875 38.363281 L 4.429688 38.363281 Z M 4.429688 0.558594 " clip-rule="nonzero"/></clipPath></defs><g clip-path="url(#e048f9719e)"><path fill="#171710" d="M 14.390625 37.367188 C 11.398438 36.960938 8.136719 36.25 6.339844 33.972656 C 5.394531 32.777344 4.980469 31.28125 4.769531 29.808594 C 4.429688 27.429688 4.566406 25.019531 4.695312 22.625 C 5.03125 16.550781 5.367188 10.46875 6.097656 4.421875 C 6.253906 3.140625 6.578125 1.65625 7.820312 1.101562 C 8.3125 0.882812 8.878906 0.855469 9.421875 0.835938 C 13.5 0.671875 17.578125 0.589844 21.660156 0.601562 C 24.144531 0.609375 26.703125 0.660156 28.992188 1.558594 C 34.183594 3.59375 34.011719 8.375 34.132812 12.824219 C 34.28125 18.351562 34.4375 23.882812 34.585938 29.410156 C 34.65625 31.8125 34.671875 34.382812 33.253906 36.386719 C 32.757812 37.097656 32.070312 37.71875 31.21875 38.015625 C 30.519531 38.265625 29.753906 38.277344 29.007812 38.289062 C 24.125 38.332031 19.230469 38.027344 14.390625 37.367188 Z M 14.390625 37.367188 " fill-opacity="1" fill-rule="nonzero"/></g><g fill="#f3f5f9" fill-opacity="1"><g transform="translate(8.293912, 24.73408)"><g><path d="M 4.90625 0 C 8.074219 -0.0585938 6.46875 -7.875 6.234375 -9.457031 C 7.023438 -9.457031 8.527344 -9.300781 9.0625 -9.992188 C 9.617188 -10.683594 9.121094 -11.632812 8.410156 -11.972656 C 7.359375 -12.464844 5.996094 -12.289062 4.867188 -12.347656 C 3.859375 -12.40625 2.058594 -12.902344 1.148438 -12.484375 C 0.355469 -12.128906 0.078125 -11.179688 0.457031 -10.425781 C 1.007812 -9.261719 2.53125 -9.417969 3.601562 -9.476562 C 3.679688 -7.242188 3.441406 -5.066406 3.363281 -2.847656 C 3.304688 -1.722656 3.363281 0.0195312 4.90625 0 Z M 4.90625 0 "/></g></g></g><g fill="#f3f5f9" fill-opacity="1"><g transform="translate(21.669543, 24.73408)"><g><path d="M 4.90625 0 C 8.074219 -0.0585938 6.46875 -7.875 6.234375 -9.457031 C 7.023438 -9.457031 8.527344 -9.300781 9.0625 -9.992188 C 9.617188 -10.683594 9.121094 -11.632812 8.410156 -11.972656 C 7.359375 -12.464844 5.996094 -12.289062 4.867188 -12.347656 C 3.859375 -12.40625 2.058594 -12.902344 1.148438 -12.484375 C 0.355469 -12.128906 0.078125 -11.179688 0.457031 -10.425781 C 1.007812 -9.261719 2.53125 -9.417969 3.601562 -9.476562 C 3.679688 -7.242188 3.441406 -5.066406 3.363281 -2.847656 C 3.304688 -1.722656 3.363281 0.0195312 4.90625 0 Z M 4.90625 0 "/></g></g></g><g fill="#171710" fill-opacity="1"><g transform="translate(47.58285, 23.664794)"><g><path d="M 4.710938 0 C 7.75 -0.0585938 6.210938 -7.5625 5.984375 -9.082031 C 6.742188 -9.082031 8.1875 -8.929688 8.699219 -9.59375 C 9.234375 -10.257812 8.757812 -11.171875 8.074219 -11.492188 C 7.066406 -11.96875 5.757812 -11.796875 4.671875 -11.855469 C 3.703125 -11.910156 1.976562 -12.386719 1.101562 -11.988281 C 0.34375 -11.644531 0.0742188 -10.734375 0.4375 -10.011719 C 0.96875 -8.890625 2.433594 -9.042969 3.457031 -9.101562 C 3.535156 -6.953125 3.304688 -4.863281 3.230469 -2.734375 C 3.171875 -1.652344 3.230469 0.0195312 4.710938 0 Z M 4.710938 0 "/></g></g></g><g fill="#171710" fill-opacity="1"><g transform="translate(60.42499, 23.664794)"><g><path d="M 2.699219 -0.359375 C 3.417969 -1.0625 3.285156 -2.46875 3.324219 -3.382812 C 3.34375 -4.046875 3.191406 -4.558594 3.648438 -4.824219 C 4.160156 -5.128906 5.546875 -5.074219 6.15625 -5.167969 C 6.097656 -3.933594 5.660156 -2.03125 6.574219 -0.96875 C 7.980469 0.644531 8.53125 -2.296875 8.585938 -3.191406 C 8.699219 -4.617188 9.765625 -11.988281 8.511719 -13.03125 C 7.429688 -13.945312 6.097656 -12.898438 5.792969 -11.796875 C 5.433594 -10.503906 5.8125 -8.949219 5.964844 -7.65625 C 5.148438 -7.65625 4.332031 -7.714844 3.496094 -7.675781 C 3.648438 -9.175781 4.425781 -13.753906 1.367188 -12.632812 C 0.246094 -12.214844 0.265625 -11.054688 0.285156 -10.03125 C 0.285156 -8.320312 0.34375 -6.609375 0.378906 -4.902344 C 0.398438 -3.609375 0.226562 -2.714844 0.492188 -1.445312 C 0.683594 -0.457031 1.746094 0.550781 2.699219 -0.359375 Z M 2.699219 -0.359375 "/></g></g></g><g fill="#171710" fill-opacity="1"><g transform="translate(73.837011, 23.664794)"><g><path d="M 3.152344 -0.0390625 C 4.332031 -0.09375 5.507812 -0.0742188 6.667969 -0.132812 C 7.636719 -0.191406 8.359375 -0.324219 8.738281 -1.273438 C 8.96875 -1.898438 9.101562 -3.039062 8.472656 -3.515625 C 7.769531 -4.027344 6.667969 -3.800781 5.871094 -3.835938 C 5.148438 -3.875 3.285156 -4.464844 4.371094 -5.472656 C 5.015625 -6.078125 6.023438 -5.355469 6.78125 -5.566406 C 7.617188 -5.8125 7.808594 -6.761719 7.714844 -7.542969 C 7.65625 -8.207031 7.429688 -8.585938 6.78125 -8.832031 C 6.15625 -9.0625 4.84375 -8.644531 4.351562 -9.003906 C 3.683594 -9.480469 4.292969 -10.371094 4.769531 -10.46875 C 5.492188 -10.636719 6.269531 -10.144531 7.027344 -10.449219 C 7.695312 -10.714844 8.035156 -11.339844 7.941406 -12.0625 C 7.808594 -13.070312 6.972656 -13.242188 6.097656 -13.375 C 4.804688 -13.5625 1.386719 -14.210938 0.816406 -12.613281 C 0.570312 -11.929688 0.703125 -10.980469 0.664062 -10.277344 C 0.625 -9.003906 0.570312 -7.730469 0.511719 -6.460938 C 0.457031 -5.375 0.417969 -4.292969 0.359375 -3.210938 C 0.324219 -2.355469 0.0742188 -1.121094 0.761719 -0.457031 C 1.386719 0.152344 2.394531 -0.0195312 3.152344 -0.0390625 Z M 3.152344 -0.0390625 "/></g></g></g><g fill="#171710" fill-opacity="1"><g transform="translate(86.964096, 23.664794)"><g><path d="M 10.238281 -0.644531 C 11.835938 -2.222656 10.085938 -5.148438 9.15625 -6.554688 C 11.304688 -8.550781 11.796875 -11.683594 9.117188 -13.429688 C 7.238281 -14.667969 1.425781 -15.710938 0.910156 -12.539062 C 0.625 -10.847656 0.835938 -8.949219 0.722656 -7.199219 C 0.609375 -5.605469 -0.0585938 -3.363281 0.511719 -1.804688 C 1.042969 -0.378906 2.660156 -0.0195312 3.648438 -1.214844 C 4.140625 -1.824219 4.3125 -2.621094 4.484375 -3.363281 C 4.539062 -3.609375 4.519531 -4.273438 4.691406 -4.464844 C 4.902344 -4.691406 6.078125 -4.789062 6.382812 -4.882812 C 6.648438 -3.476562 7.714844 1.824219 10.238281 -0.644531 Z M 4.386719 -7.257812 C 4.3125 -8.015625 3.855469 -9.441406 4.085938 -10.144531 C 4.238281 -10.65625 4.597656 -10.636719 5.167969 -10.65625 C 6.574219 -10.734375 8.132812 -9.460938 6.476562 -8.300781 C 5.832031 -7.847656 5.109375 -7.542969 4.386719 -7.257812 Z M 4.386719 -7.257812 "/></g></g></g><g fill="#171710" fill-opacity="1"><g transform="translate(102.104772, 23.664794)"><g><path d="M 3.152344 -0.0390625 C 4.332031 -0.09375 5.507812 -0.0742188 6.667969 -0.132812 C 7.636719 -0.191406 8.359375 -0.324219 8.738281 -1.273438 C 8.96875 -1.898438 9.101562 -3.039062 8.472656 -3.515625 C 7.769531 -4.027344 6.667969 -3.800781 5.871094 -3.835938 C 5.148438 -3.875 3.285156 -4.464844 4.371094 -5.472656 C 5.015625 -6.078125 6.023438 -5.355469 6.78125 -5.566406 C 7.617188 -5.8125 7.808594 -6.761719 7.714844 -7.542969 C 7.65625 -8.207031 7.429688 -8.585938 6.78125 -8.832031 C 6.15625 -9.0625 4.84375 -8.644531 4.351562 -9.003906 C 3.683594 -9.480469 4.292969 -10.371094 4.769531 -10.46875 C 5.492188 -10.636719 6.269531 -10.144531 7.027344 -10.449219 C 7.695312 -10.714844 8.035156 -11.339844 7.941406 -12.0625 C 7.808594 -13.070312 6.972656 -13.242188 6.097656 -13.375 C 4.804688 -13.5625 1.386719 -14.210938 0.816406 -12.613281 C 0.570312 -11.929688 0.703125 -10.980469 0.664062 -10.277344 C 0.625 -9.003906 0.570312 -7.730469 0.511719 -6.460938 C 0.457031 -5.375 0.417969 -4.292969 0.359375 -3.210938 C 0.324219 -2.355469 0.0742188 -1.121094 0.761719 -0.457031 C 1.386719 0.152344 2.394531 -0.0195312 3.152344 -0.0390625 Z M 3.152344 -0.0390625 "/></g></g></g><g fill="#171710" fill-opacity="1"><g transform="translate(115.231861, 23.664794)"><g/></g></g><g fill="#171710" fill-opacity="1"><g transform="translate(123.89486, 23.664794)"><g><path d="M 1.460938 -0.113281 C 2.148438 0.09375 3 0.0390625 3.457031 -0.53125 C 3.953125 -1.140625 3.800781 -2.640625 4.351562 -3.097656 C 4.65625 -3.324219 7.3125 -3.117188 7.410156 -3.039062 C 7.921875 -2.601562 8.015625 -1.386719 8.398438 -0.835938 C 8.929688 -0.0585938 9.632812 -0.0195312 10.371094 -0.609375 C 11.113281 -1.214844 11.039062 -1.84375 10.734375 -2.679688 L 8.511719 -8.929688 C 7.980469 -10.449219 7.617188 -12.785156 5.625 -12.746094 C 3.855469 -12.691406 2.984375 -11.625 2.46875 -10.070312 C 1.863281 -8.226562 1.292969 -6.363281 0.835938 -4.484375 C 0.492188 -3.078125 -0.492188 -0.683594 1.460938 -0.113281 Z M 5.222656 -5.792969 C 5.394531 -6.363281 5.585938 -6.933594 5.757812 -7.503906 C 5.910156 -6.992188 6.078125 -6.496094 6.25 -5.984375 C 5.910156 -5.925781 5.566406 -5.851562 5.222656 -5.792969 Z M 5.222656 -5.792969 "/></g></g></g><g fill="#171710" fill-opacity="1"><g transform="translate(139.054533, 23.664794)"><g><path d="M 0.894531 -0.359375 C 2.699219 1.558594 3.535156 -4.804688 3.722656 -5.585938 C 4.503906 -4.3125 7.617188 2.183594 9.347656 -1.539062 C 10.429688 -3.835938 10.125 -7.714844 9.765625 -10.070312 C 9.59375 -11.339844 8.246094 -11.875 7.3125 -10.90625 C 6.34375 -9.878906 6.742188 -7.863281 6.820312 -6.628906 C 6.058594 -7.808594 5.640625 -9.101562 4.921875 -10.257812 C 4.351562 -11.207031 3.117188 -12.007812 1.996094 -11.457031 C 0.207031 -10.5625 0.492188 -6.535156 0.398438 -4.84375 C 0.34375 -3.667969 0.0195312 -1.3125 0.894531 -0.359375 Z M 0.894531 -0.359375 "/></g></g></g><g fill="#171710" fill-opacity="1"><g transform="translate(153.359373, 23.664794)"><g><path d="M 0.550781 -1.613281 C 1.0625 1.632812 6.574219 -0.796875 7.941406 -2.222656 C 10.085938 -4.464844 11.285156 -8.511719 9.554688 -11.398438 C 8.699219 -12.859375 6.992188 -13.414062 5.394531 -13.507812 C 4.027344 -13.601562 1.785156 -13.507812 0.894531 -12.292969 C -0.0195312 -11.019531 0.359375 -8.832031 0.417969 -7.371094 C 0.492188 -5.492188 0.265625 -3.476562 0.550781 -1.613281 Z M 4.40625 -4.332031 C 3.4375 -4.539062 3.855469 -6.6875 3.855469 -7.390625 C 3.875 -8.53125 3.550781 -9.820312 5.054688 -9.441406 C 6.191406 -9.175781 7.085938 -8.226562 6.820312 -7.011719 C 6.648438 -6.230469 5.492188 -4.085938 4.40625 -4.332031 Z M 4.40625 -4.332031 "/></g></g></g><g fill="#171710" fill-opacity="1"><g transform="translate(167.949147, 23.664794)"><g/></g></g><g fill="#171710" fill-opacity="1"><g transform="translate(176.612141, 23.664794)"><g><path d="M 4.710938 0 C 7.75 -0.0585938 6.210938 -7.5625 5.984375 -9.082031 C 6.742188 -9.082031 8.1875 -8.929688 8.699219 -9.59375 C 9.234375 -10.257812 8.757812 -11.171875 8.074219 -11.492188 C 7.066406 -11.96875 5.757812 -11.796875 4.671875 -11.855469 C 3.703125 -11.910156 1.976562 -12.386719 1.101562 -11.988281 C 0.34375 -11.644531 0.0742188 -10.734375 0.4375 -10.011719 C 0.96875 -8.890625 2.433594 -9.042969 3.457031 -9.101562 C 3.535156 -6.953125 3.304688 -4.863281 3.230469 -2.734375 C 3.171875 -1.652344 3.230469 0.0195312 4.710938 0 Z M 4.710938 0 "/></g></g></g><g fill="#171710" fill-opacity="1"><g transform="translate(189.454277, 23.664794)"><g><path d="M 2.699219 -0.359375 C 3.417969 -1.0625 3.285156 -2.46875 3.324219 -3.382812 C 3.34375 -4.046875 3.191406 -4.558594 3.648438 -4.824219 C 4.160156 -5.128906 5.546875 -5.074219 6.15625 -5.167969 C 6.097656 -3.933594 5.660156 -2.03125 6.574219 -0.96875 C 7.980469 0.644531 8.53125 -2.296875 8.585938 -3.191406 C 8.699219 -4.617188 9.765625 -11.988281 8.511719 -13.03125 C 7.429688 -13.945312 6.097656 -12.898438 5.792969 -11.796875 C 5.433594 -10.503906 5.8125 -8.949219 5.964844 -7.65625 C 5.148438 -7.65625 4.332031 -7.714844 3.496094 -7.675781 C 3.648438 -9.175781 4.425781 -13.753906 1.367188 -12.632812 C 0.246094 -12.214844 0.265625 -11.054688 0.285156 -10.03125 C 0.285156 -8.320312 0.34375 -6.609375 0.378906 -4.902344 C 0.398438 -3.609375 0.226562 -2.714844 0.492188 -1.445312 C 0.683594 -0.457031 1.746094 0.550781 2.699219 -0.359375 Z M 2.699219 -0.359375 "/></g></g></g><g fill="#171710" fill-opacity="1"><g transform="translate(202.866294, 23.664794)"><g><path d="M 3.152344 -0.0390625 C 4.332031 -0.09375 5.507812 -0.0742188 6.667969 -0.132812 C 7.636719 -0.191406 8.359375 -0.324219 8.738281 -1.273438 C 8.96875 -1.898438 9.101562 -3.039062 8.472656 -3.515625 C 7.769531 -4.027344 6.667969 -3.800781 5.871094 -3.835938 C 5.148438 -3.875 3.285156 -4.464844 4.371094 -5.472656 C 5.015625 -6.078125 6.023438 -5.355469 6.78125 -5.566406 C 7.617188 -5.8125 7.808594 -6.761719 7.714844 -7.542969 C 7.65625 -8.207031 7.429688 -8.585938 6.78125 -8.832031 C 6.15625 -9.0625 4.84375 -8.644531 4.351562 -9.003906 C 3.683594 -9.480469 4.292969 -10.371094 4.769531 -10.46875 C 5.492188 -10.636719 6.269531 -10.144531 7.027344 -10.449219 C 7.695312 -10.714844 8.035156 -11.339844 7.941406 -12.0625 C 7.808594 -13.070312 6.972656 -13.242188 6.097656 -13.375 C 4.804688 -13.5625 1.386719 -14.210938 0.816406 -12.613281 C 0.570312 -11.929688 0.703125 -10.980469 0.664062 -10.277344 C 0.625 -9.003906 0.570312 -7.730469 0.511719 -6.460938 C 0.457031 -5.375 0.417969 -4.292969 0.359375 -3.210938 C 0.324219 -2.355469 0.0742188 -1.121094 0.761719 -0.457031 C 1.386719 0.152344 2.394531 -0.0195312 3.152344 -0.0390625 Z M 3.152344 -0.0390625 "/></g></g></g><g fill="#171710" fill-opacity="1"><g transform="translate(215.993376, 23.664794)"><g><path d="M 0.894531 -0.359375 C 2.699219 1.558594 3.535156 -4.804688 3.722656 -5.585938 C 4.503906 -4.3125 7.617188 2.183594 9.347656 -1.539062 C 10.429688 -3.835938 10.125 -7.714844 9.765625 -10.070312 C 9.59375 -11.339844 8.246094 -11.875 7.3125 -10.90625 C 6.34375 -9.878906 6.742188 -7.863281 6.820312 -6.628906 C 6.058594 -7.808594 5.640625 -9.101562 4.921875 -10.257812 C 4.351562 -11.207031 3.117188 -12.007812 1.996094 -11.457031 C 0.207031 -10.5625 0.492188 -6.535156 0.398438 -4.84375 C 0.34375 -3.667969 0.0195312 -1.3125 0.894531 -0.359375 Z M 0.894531 -0.359375 "/></g></g></g><g fill="#171710" fill-opacity="1"><g transform="translate(230.289874, 23.664794)"><g/></g></g></svg>